<svg width="68" height="60" viewBox="0 0 68 60" fill="none" xmlns="http://www.w3.org/2000/svg">
<path d="M49.577 0C46.3879 0.0498149 43.2682 0.943836 40.5332 2.59178C37.7982 4.23972 35.5446 6.58324 34 9.38565C32.4554 6.58324 30.2018 4.23972 27.4668 2.59178C24.7318 0.943836 21.6121 0.0498149 18.423 0C13.339 0.221816 8.5491 2.45521 5.09971 6.21226C1.65032 9.9693 -0.178172 14.9446 0.0137109 20.0512C0.0137109 32.9835 13.5686 47.1075 24.937 56.6837C27.4753 58.8257 30.6845 60 34 60C37.3155 60 40.5247 58.8257 43.063 56.6837C54.4314 47.1075 67.9863 32.9835 67.9863 20.0512C68.1782 14.9446 66.3497 9.9693 62.9003 6.21226C59.4509 2.45521 54.661 0.221816 49.577 0ZM39.4236 52.3321C37.9055 53.6159 35.9847 54.3199 34 54.3199C32.0153 54.3199 30.0945 53.6159 28.5764 52.3321C14.0246 40.0711 5.67809 28.3077 5.67809 20.0512C5.48449 16.4525 6.71571 12.923 9.10324 10.2324C11.4908 7.54171 14.8409 5.90827 18.423 5.68828C22.005 5.90827 25.3551 7.54171 27.7427 10.2324C30.1302 12.923 31.3614 16.4525 31.1678 20.0512C31.1678 20.8055 31.4662 21.5289 31.9973 22.0623C32.5285 22.5957 33.2489 22.8953 34 22.8953C34.7511 22.8953 35.4715 22.5957 36.0027 22.0623C36.5338 21.5289 36.8322 20.8055 36.8322 20.0512C36.6386 16.4525 37.8698 12.923 40.2573 10.2324C42.6449 7.54171 45.995 5.90827 49.577 5.68828C53.1591 5.90827 56.5092 7.54171 58.8968 10.2324C61.2843 12.923 62.5155 16.4525 62.3219 20.0512C62.3219 28.3077 53.9754 40.0711 39.4236 52.3208V52.3321Z" fill="white"/>
</svg>
